<svg xmlns="http://www.w3.org/2000/svg" version="1.1" xmlns:xlink="http://www.w3.org/1999/xlink" xmlns:svgjs="http://svgjs.dev/svgjs" width="1000" height="1000" viewBox="0 0 1000 1000"><rect width="1000" height="1000" fill="#ffffff"></rect><g transform="matrix(0.7,0,0,0.7,149.57575757575756,282.1265587044535)"><svg viewBox="0 0 396 247" data-background-color="#ffffff" preserveAspectRatio="xMidYMid meet" height="623" width="1000" xmlns="http://www.w3.org/2000/svg" xmlns:xlink="http://www.w3.org/1999/xlink"><g id="tight-bounds" transform="matrix(1,0,0,1,0.2400000000000091,-0.09999999999999432)"><svg viewBox="0 0 395.52 247.2" height="247.2" width="395.52"><rect width="395.5199890136719" height="247.1999969482422" fill="url(#17b44f2b-c611-4175-a259-43c6798ff899)" mask="url(#2e14e791-96e4-4507-b20a-d9c0d2f0767f)" data-fill-palette-color="tertiary"></rect><g><svg></svg></g><g><svg viewBox="0 0 395.52 247.2" height="247.2" width="395.52"><g transform="matrix(1,0,0,1,75.54432,108.74380372881356)"><svg viewBox="0 0 244.43135999999998 29.71239254237288" height="29.71239254237288" width="244.43135999999998"><g><svg viewBox="0 0 244.43135999999998 29.71239254237288" height="29.71239254237288" width="244.43135999999998"><g><svg viewBox="0 0 244.43135999999998 29.71239254237288" height="29.71239254237288" width="244.43135999999998"><g><svg viewBox="0 0 244.43135999999998 29.71239254237288" height="29.71239254237288" width="244.43135999999998"><g id="textblocktransform"><svg viewBox="0 0 244.43135999999998 29.71239254237288" height="29.71239254237288" width="244.43135999999998" id="textblock"><g><svg viewBox="0 0 244.43135999999998 29.71239254237288" height="29.71239254237288" width="244.43135999999998"><g transform="matrix(1,0,0,1,0,0)"><svg width="244.43135999999998" viewBox="3.450000047683716 -36.20000076293945 377.55999755859375 45.900001525878906" height="29.71239254237288" data-palette-color="url(#6c46dda2-63f8-4d92-be2f-a84c5141a185)"></svg></g></svg></g></svg></g></svg></g></svg></g></svg></g></svg></g><g><path d="M245.816 0c68.262 0 123.6 55.338 123.6 123.6 0 68.262-55.338 123.6-123.6 123.6-62.022 0-113.375-45.683-122.246-105.237h1.355c8.859 58.811 59.609 103.897 120.891 103.897 67.522 0 122.26-54.738 122.26-122.26 0-67.522-54.738-122.26-122.26-122.26-61.281 0-112.032 45.086-120.891 103.897l-1.355 0c8.87-59.554 60.223-105.237 122.246-105.237z" fill="url(#17b44f2b-c611-4175-a259-43c6798ff899)" stroke="transparent" data-fill-palette-color="tertiary"></path></g></svg></g><defs></defs><mask id="441b1205-5603-4c3e-9554-c01f0427b00f"><g id="SvgjsG1026"><svg viewBox="0 0 395.52 247.2" height="247.2" width="395.52"><g><svg></svg></g><g><svg viewBox="0 0 395.52 247.2" height="247.2" width="395.52"><g transform="matrix(1,0,0,1,75.54432,108.74380372881356)"><svg viewBox="0 0 244.43135999999998 29.71239254237288" height="29.71239254237288" width="244.43135999999998"><g><svg viewBox="0 0 244.43135999999998 29.71239254237288" height="29.71239254237288" width="244.43135999999998"><g><svg viewBox="0 0 244.43135999999998 29.71239254237288" height="29.71239254237288" width="244.43135999999998"><g><svg viewBox="0 0 244.43135999999998 29.71239254237288" height="29.71239254237288" width="244.43135999999998"><g id="SvgjsG1025"><svg viewBox="0 0 244.43135999999998 29.71239254237288" height="29.71239254237288" width="244.43135999999998" id="SvgjsSvg1024"><g><svg viewBox="0 0 244.43135999999998 29.71239254237288" height="29.71239254237288" width="244.43135999999998"><g transform="matrix(1,0,0,1,0,0)"><svg width="244.43135999999998" viewBox="3.450000047683716 -36.20000076293945 377.55999755859375 45.900001525878906" height="29.71239254237288" data-palette-color="url(#6c46dda2-63f8-4d92-be2f-a84c5141a185)"><path d="M24.4-17.15L24.4 0 19.5 0 19.5-16Q19.5-18.65 18.18-20.05 16.85-21.45 14.65-21.45L14.65-21.45Q12.05-21.45 10.2-19.43 8.35-17.4 8.35-13.75L8.35-13.75 8.35 0 3.45 0 3.45-25.35 8.35-25.35 8.35-21Q10.6-25.7 16.25-25.7L16.25-25.7Q20-25.7 22.2-23.4 24.4-21.1 24.4-17.15L24.4-17.15ZM51.65-25.35L51.65 0 46.75 0 46.75-4.35Q44.75 0.3 38.85 0.3L38.85 0.3Q35.1 0.3 32.9-1.93 30.7-4.15 30.7-8.05L30.7-8.05 30.7-25.35 35.65-25.35 35.65-9.25Q35.65-6.65 36.92-5.28 38.2-3.9 40.45-3.9L40.45-3.9Q43.3-3.9 45.02-5.9 46.75-7.9 46.75-11.55L46.75-11.55 46.75-25.35 51.65-25.35ZM63.45-13.5L63.45 0 58.55 0 58.55-25.35 63.45-25.35 63.45-20.9Q65.3-25.6 70.09-25.6L70.09-25.6Q70.8-25.6 71.64-25.45L71.64-25.45 71.64-20.65Q70.59-21.1 69.3-21.1L69.3-21.1Q66.75-21.1 65.09-18.85 63.45-16.6 63.45-13.5L63.45-13.5ZM91.34-7L91.34-7Q91.34-3.6 88.94-1.68 86.54 0.25 82.44 0.25L82.44 0.25Q77.94 0.25 74.94-1.25L74.94-1.25 74.94-5.9Q78.44-3.75 82.19-3.75L82.19-3.75Q84.14-3.75 85.22-4.55 86.29-5.35 86.29-6.65L86.29-6.65Q86.29-7.75 85.44-8.63 84.59-9.5 83.72-9.93 82.84-10.35 80.74-11.25L80.74-11.25Q74.79-13.7 74.79-18.45L74.79-18.45Q74.79-21.8 77.29-23.7 79.79-25.6 83.54-25.6L83.54-25.6Q87.64-25.6 89.94-24.5L89.94-24.5 89.94-20.05Q87.49-21.5 83.64-21.5L83.64-21.5Q81.89-21.5 80.87-20.7 79.84-19.9 79.84-18.6L79.84-18.6Q79.84-18.25 79.92-17.93 79.99-17.6 80.19-17.28 80.39-16.95 80.57-16.73 80.74-16.5 81.14-16.25 81.54-16 81.77-15.83 81.99-15.65 82.52-15.4 83.04-15.15 83.29-15.03 83.54-14.9 84.17-14.63 84.79-14.35 85.04-14.25L85.04-14.25Q87.99-12.95 89.67-11.33 91.34-9.7 91.34-7ZM101.59-25.35L101.59 0 96.64 0 96.64-25.35 101.59-25.35ZM102.19-33.1L102.19-33.1Q102.19-31.85 101.29-30.95 100.39-30.05 99.09-30.05 97.79-30.05 96.92-30.93 96.04-31.8 96.04-33.1 96.04-34.4 96.92-35.3 97.79-36.2 99.09-36.2 100.39-36.2 101.29-35.3 102.19-34.4 102.19-33.1ZM129.64-17.15L129.64 0 124.74 0 124.74-16Q124.74-18.65 123.41-20.05 122.09-21.45 119.89-21.45L119.89-21.45Q117.29-21.45 115.44-19.43 113.59-17.4 113.59-13.75L113.59-13.75 113.59 0 108.69 0 108.69-25.35 113.59-25.35 113.59-21Q115.84-25.7 121.49-25.7L121.49-25.7Q125.24-25.7 127.44-23.4 129.64-21.1 129.64-17.15L129.64-17.15ZM157.59-25.35L157.59-2.15Q157.59 3.7 154.26 6.68 150.94 9.65 145.74 9.65L145.74 9.65Q140.84 9.65 137.49 8L137.49 8 137.49 3.05Q140.69 5.15 145.24 5.15L145.24 5.15Q152.69 5.15 152.69-2.2L152.69-2.2 152.69-4.8Q150.24-0.7 145.34-0.7L145.34-0.7Q141.04-0.7 137.99-3.88 134.94-7.05 134.94-12.85L134.94-12.85Q134.94-18.45 137.79-22.08 140.64-25.7 145.34-25.7L145.34-25.7Q150.39-25.7 152.69-21.4L152.69-21.4 152.69-25.35 157.59-25.35ZM140.09-12.95L140.09-12.95Q140.09-9 141.91-6.95 143.74-4.9 146.24-4.9L146.24-4.9Q148.84-4.9 150.76-6.93 152.69-8.95 152.69-12.6L152.69-12.6Q152.69-17.1 150.86-19.25 149.04-21.4 146.44-21.4L146.44-21.4Q143.49-21.4 141.79-19.07 140.09-16.75 140.09-12.95ZM184.68-3.65L184.68-3.65Q187.08-3.65 188.46-4.98 189.83-6.3 189.83-8.45L189.83-8.45 189.83-11.3 186.03-11.3Q183.23-11.3 181.81-10.2 180.38-9.1 180.38-7.4L180.38-7.4Q180.38-5.65 181.48-4.65 182.58-3.65 184.68-3.65ZM189.98 0L189.98-3Q188.03 0.2 183.13 0.2L183.13 0.2Q179.53 0.2 177.36-1.88 175.18-3.95 175.18-7.15L175.18-7.15Q175.18-10.8 177.93-12.83 180.68-14.85 185.63-14.85L185.63-14.85 189.83-14.85 189.83-16.3Q189.83-18.9 188.58-20.23 187.33-21.55 184.43-21.55L184.43-21.55Q180.38-21.55 177.08-19.3L177.08-19.3 177.08-24.05Q180.03-25.75 184.88-25.75L184.88-25.75Q194.83-25.75 194.83-16.1L194.83-16.1 194.83 0 189.98 0ZM219.33-5.4L219.33-1Q216.88 0.5 213.08 0.5L213.08 0.5Q207.13 0.5 203.58-3.25 200.03-7 200.03-12.6L200.03-12.6Q200.03-18.05 203.6-21.93 207.18-25.8 213.28-25.8L213.28-25.8Q216.58-25.8 219.33-24.4L219.33-24.4 219.33-19.9Q216.88-21.45 213.78-21.45L213.78-21.45Q209.83-21.45 207.45-18.95 205.08-16.45 205.08-12.55L205.08-12.55Q205.18-8.7 207.43-6.23 209.68-3.75 213.73-3.75L213.73-3.75Q216.73-3.75 219.33-5.4L219.33-5.4ZM233.18-3.65L233.18-3.65Q235.58-3.65 236.95-4.98 238.33-6.3 238.33-8.45L238.33-8.45 238.33-11.3 234.53-11.3Q231.73-11.3 230.3-10.2 228.88-9.1 228.88-7.4L228.88-7.4Q228.88-5.65 229.98-4.65 231.08-3.65 233.18-3.65ZM238.48 0L238.48-3Q236.53 0.2 231.63 0.2L231.63 0.2Q228.03 0.2 225.85-1.88 223.68-3.95 223.68-7.15L223.68-7.15Q223.68-10.8 226.43-12.83 229.18-14.85 234.13-14.85L234.13-14.85 238.33-14.85 238.33-16.3Q238.33-18.9 237.08-20.23 235.83-21.55 232.93-21.55L232.93-21.55Q228.88-21.55 225.58-19.3L225.58-19.3 225.58-24.05Q228.53-25.75 233.38-25.75L233.38-25.75Q243.33-25.75 243.33-16.1L243.33-16.1 243.33 0 238.48 0ZM253.57-12.45L253.57-12.45Q253.57-8.65 255.45-6.3 257.32-3.95 260.17-3.95L260.17-3.95Q263.07-3.95 265.07-6.15 267.07-8.35 267.07-12.85L267.07-12.85Q267.07-17.2 265-19.3 262.92-21.4 260.32-21.4L260.32-21.4Q257.37-21.4 255.47-19.07 253.57-16.75 253.57-12.45ZM272.02-35.35L272.02 0 267.07 0 267.07-3.85Q264.42 0.35 259.32 0.35L259.32 0.35Q254.32 0.35 251.42-3.43 248.52-7.2 248.52-12.55L248.52-12.55Q248.52-18.5 251.57-22.1 254.62-25.7 259.42-25.7L259.42-25.7Q264.37-25.7 267.07-21.5L267.07-21.5 267.07-35.35 272.02-35.35ZM297.82-5.75L297.82-1.35Q295.02 0.25 290.42 0.25L290.42 0.25Q284.52 0.25 281.02-3.3 277.52-6.85 277.52-12.6L277.52-12.6Q277.52-18.7 280.72-22.18 283.92-25.65 288.87-25.65L288.87-25.65Q293.72-25.65 296.57-22.63 299.42-19.6 299.42-13.9L299.42-13.9Q299.42-12.35 299.12-10.65L299.12-10.65 282.47-10.65Q282.97-7.35 285.27-5.6 287.57-3.85 291.07-3.85L291.07-3.85Q295.12-3.85 297.82-5.75L297.82-5.75ZM288.97-21.6L288.97-21.6Q286.47-21.6 284.67-19.78 282.87-17.95 282.42-14.5L282.42-14.5 294.67-14.5 294.67-15.4Q294.57-18.25 293.12-19.93 291.67-21.6 288.97-21.6ZM340.02-17.05L340.02 0 335.12 0 335.12-16Q335.12-21.45 330.72-21.45L330.72-21.45Q328.52-21.45 326.79-19.5 325.07-17.55 325.07-13.75L325.07-13.75 325.07 0 320.17 0 320.17-16Q320.17-21.45 315.72-21.45L315.72-21.45Q313.57-21.45 311.82-19.5 310.07-17.55 310.07-13.75L310.07-13.75 310.07 0 305.17 0 305.17-25.35 310.07-25.35 310.07-21.3Q312.22-25.7 317.22-25.7L317.22-25.7Q322.92-25.7 324.52-20.8L324.52-20.8Q325.57-23.15 327.57-24.43 329.57-25.7 332.07-25.7L332.07-25.7Q335.97-25.7 337.99-23.4 340.02-21.1 340.02-17.05L340.02-17.05ZM351.82-25.35L351.82 0 346.87 0 346.87-25.35 351.82-25.35ZM352.42-33.1L352.42-33.1Q352.42-31.85 351.52-30.95 350.62-30.05 349.32-30.05 348.02-30.05 347.14-30.93 346.27-31.8 346.27-33.1 346.27-34.4 347.14-35.3 348.02-36.2 349.32-36.2 350.62-36.2 351.52-35.3 352.42-34.4 352.42-33.1ZM362.56-12.8L362.56-12.8Q362.56-8.65 364.49-6.3 366.41-3.95 369.31-3.95L369.31-3.95Q372.01-3.95 374.04-6.15 376.06-8.35 376.06-12.75L376.06-12.75Q376.06-17.25 374.01-19.33 371.96-21.4 369.16-21.4L369.16-21.4Q366.31-21.4 364.44-19.05 362.56-16.7 362.56-12.8ZM381.01-25.35L381.01 9.7 376.06 9.7 376.06-3.9Q373.36 0.35 368.41 0.35 363.46 0.35 360.49-3.38 357.51-7.1 357.51-12.85L357.51-12.85Q357.51-18.45 360.44-22.08 363.36-25.7 368.36-25.7 373.36-25.7 376.06-21.55L376.06-21.55 376.06-25.35 381.01-25.35Z" opacity="1" transform="matrix(1,0,0,1,0,0)" fill="white" class="wordmark-text-0" id="SvgjsPath1023"></path></svg></g></svg></g></svg></g></svg></g></svg></g></svg></g></svg></g><g></g></svg></g><defs><mask></mask></defs></svg></g></mask><linearGradient x1="0" x2="1" y1="0.578" y2="0.595" id="6c46dda2-63f8-4d92-be2f-a84c5141a185"><stop stop-color="#6ee2f5" offset="0"></stop><stop stop-color="#6454f0" offset="1"></stop></linearGradient><rect width="395.5199890136719" height="247.1999969482422" fill="url(#6c46dda2-63f8-4d92-be2f-a84c5141a185)" mask="url(#441b1205-5603-4c3e-9554-c01f0427b00f)" data-fill-palette-color="primary"></rect><mask id="2e14e791-96e4-4507-b20a-d9c0d2f0767f"><g id="SvgjsG1033"><svg viewBox="0 0 395.52 247.2" height="247.2" width="395.52"><g><svg></svg></g><g><svg viewBox="0 0 395.52 247.2" height="247.2" width="395.52"><g transform="matrix(1,0,0,1,75.54432,108.74380372881356)"><svg viewBox="0 0 244.43135999999998 29.71239254237288" height="29.71239254237288" width="244.43135999999998"><g><svg viewBox="0 0 244.43135999999998 29.71239254237288" height="29.71239254237288" width="244.43135999999998"><g><svg viewBox="0 0 244.43135999999998 29.71239254237288" height="29.71239254237288" width="244.43135999999998"><g><svg viewBox="0 0 244.43135999999998 29.71239254237288" height="29.71239254237288" width="244.43135999999998"><g id="SvgjsG1032"><svg viewBox="0 0 244.43135999999998 29.71239254237288" height="29.71239254237288" width="244.43135999999998" id="SvgjsSvg1031"><g><svg viewBox="0 0 244.43135999999998 29.71239254237288" height="29.71239254237288" width="244.43135999999998"><g transform="matrix(1,0,0,1,0,0)"><svg width="244.43135999999998" viewBox="3.450000047683716 -36.20000076293945 377.55999755859375 45.900001525878906" height="29.71239254237288" data-palette-color="url(#6c46dda2-63f8-4d92-be2f-a84c5141a185)"></svg></g></svg></g></svg></g></svg></g></svg></g></svg></g></svg></g><g><path d="M245.816 0c68.262 0 123.6 55.338 123.6 123.6 0 68.262-55.338 123.6-123.6 123.6-62.022 0-113.375-45.683-122.246-105.237h1.355c8.859 58.811 59.609 103.897 120.891 103.897 67.522 0 122.26-54.738 122.26-122.26 0-67.522-54.738-122.26-122.26-122.26-61.281 0-112.032 45.086-120.891 103.897l-1.355 0c8.87-59.554 60.223-105.237 122.246-105.237z" fill="white" stroke="transparent"></path></g></svg></g><defs><mask></mask></defs><mask><g id="SvgjsG1030"><svg viewBox="0 0 395.52 247.2" height="247.2" width="395.52"><g><svg></svg></g><g><svg viewBox="0 0 395.52 247.2" height="247.2" width="395.52"><g transform="matrix(1,0,0,1,75.54432,108.74380372881356)"><svg viewBox="0 0 244.43135999999998 29.71239254237288" height="29.71239254237288" width="244.43135999999998"><g><svg viewBox="0 0 244.43135999999998 29.71239254237288" height="29.71239254237288" width="244.43135999999998"><g><svg viewBox="0 0 244.43135999999998 29.71239254237288" height="29.71239254237288" width="244.43135999999998"><g><svg viewBox="0 0 244.43135999999998 29.71239254237288" height="29.71239254237288" width="244.43135999999998"><g id="SvgjsG1029"><svg viewBox="0 0 244.43135999999998 29.71239254237288" height="29.71239254237288" width="244.43135999999998" id="SvgjsSvg1028"><g><svg viewBox="0 0 244.43135999999998 29.71239254237288" height="29.71239254237288" width="244.43135999999998"><g transform="matrix(1,0,0,1,0,0)"><svg width="244.43135999999998" viewBox="3.450000047683716 -36.20000076293945 377.55999755859375 45.900001525878906" height="29.71239254237288" data-palette-color="url(#6c46dda2-63f8-4d92-be2f-a84c5141a185)"></svg></g></svg></g></svg></g></svg></g></svg></g></svg></g></svg></g><g></g></svg></g><defs><mask></mask></defs></svg></g></mask></svg></g></mask><linearGradient x1="0" x2="1" y1="0.5" y2="0.5" id="17b44f2b-c611-4175-a259-43c6798ff899"><stop stop-color="#ffa62e" offset="0"></stop><stop stop-color="#f71b3d" offset="1"></stop></linearGradient></svg><rect width="395.52" height="247.2" fill="none" stroke="none" visibility="hidden"></rect></g></svg></g></svg>